M48
; DRILL file {KiCad 9.0.6} date 2026-06-20T10:07:52-0700
; FORMAT={-:-/ absolute / metric / decimal}
; #@! TF.CreationDate,2026-06-20T10:07:52-07:00
; #@! TF.GenerationSoftware,Kicad,Pcbnew,9.0.6
; #@! TF.FileFunction,Plated,1,2,PTH
FMAT,2
METRIC
; #@! TA.AperFunction,Plated,PTH,ViaDrill
T1C0.430
; #@! TA.AperFunction,Plated,PTH,ViaDrill
T2C0.460
; #@! TA.AperFunction,Plated,PTH,ViaDrill
T3C1.000
; #@! TA.AperFunction,Plated,PTH,ViaDrill
T4C2.000
%
G90
G05
T1
X123.44Y-101.05
X124.875Y-101.05
X130.882Y-101.05
X136.9Y-101.05
X138.4Y-101.05
X139.9Y-101.05
X140.775Y-90.1
X150.92Y-77.82
X156.225Y-86.1
X156.35Y-84.225
X156.975Y-92.85
X157.125Y-88.875
X157.15Y-86.9
X157.15Y-87.9
X157.15Y-89.9
X157.175Y-90.9
X157.225Y-83.5
X157.225Y-84.95
X157.25Y-91.875
X157.275Y-85.925
X160.1Y-98.175
X161.475Y-98.275
T2
X122.425Y-85.45
X122.425Y-86.45
X122.425Y-87.45
X123.87Y-93.25
X124.875Y-93.25
X125.7Y-97.725
X126.379Y-101.05
X126.85Y-97.7
X126.85Y-98.7
X127.9Y-101.05
X128.2Y-97.625
X129.12Y-99.34
X129.4Y-101.05
X129.75Y-80.025
X129.93Y-89.43
X129.94Y-85.45
X129.94Y-86.46
X129.96Y-84.457
X129.97Y-83.46
X129.97Y-88.44
X129.99Y-82.47
X129.99Y-87.46
X130.15Y-99.36
X130.172Y-97.838
X130.55Y-80.69
X130.95Y-82.475
X131.02Y-98.69
X132.379Y-101.05
X132.575Y-82.775
X132.575Y-83.775
X132.775Y-80.2
X133.575Y-82.775
X133.894Y-101.05
X134.575Y-86.85
X134.6Y-85.41
X134.975Y-82.375
X134.975Y-87.85
X134.975Y-94.225
X134.98Y-92.2
X135.0Y-93.225
X135.4Y-101.05
X136.75Y-82.85
X136.775Y-81.375
X136.775Y-83.875
X136.775Y-92.25
X136.8Y-84.825
X136.8Y-93.25
X136.825Y-94.2
X136.9Y-90.95
X140.75Y-78.65
X141.125Y-83.15
X141.4Y-101.05
X141.725Y-78.65
X141.75Y-83.9
X142.375Y-84.75
X142.89Y-89.31
X142.9Y-101.05
X143.275Y-80.8
X143.475Y-85.175
X143.85Y-89.25
X144.375Y-101.05
X144.87Y-81.8
X145.18Y-85.09
X145.32Y-89.31
X145.875Y-101.05
X146.25Y-84.7
X147.12Y-84.69
X147.475Y-101.05
X147.95Y-97.88
X148.14Y-84.71
X148.98Y-101.05
X149.525Y-81.725
X150.475Y-81.725
X150.475Y-101.05
X150.63Y-97.88
X151.98Y-101.05
X152.225Y-88.4
X153.48Y-101.05
X153.98Y-97.88
X154.975Y-101.05
X154.98Y-97.88
X156.5Y-101.05
X156.625Y-93.85
X156.67Y-94.87
X157.13Y-82.14
X157.65Y-95.975
X157.675Y-93.875
X157.7Y-94.9
X157.975Y-101.05
X158.1Y-97.4
X158.675Y-94.975
X158.675Y-95.975
X159.1Y-97.775
X159.5Y-101.05
X160.18Y-79.33
X160.97Y-79.92
X161.0Y-101.05
X161.45Y-83.15
X161.475Y-84.725
X161.475Y-85.75
X161.475Y-86.7
X161.84Y-82.13
X161.85Y-90.25
X161.875Y-91.275
X161.875Y-92.3
X161.875Y-93.675
X162.05Y-95.275
X162.23Y-81.12
X162.275Y-89.325
X162.425Y-97.875
X162.5Y-101.05
X162.55Y-86.7
X162.636Y-80.164
X162.875Y-94.0
X162.975Y-88.525
X163.825Y-84.95
X163.825Y-85.8
X163.86Y-95.22
X163.925Y-97.875
X164.0Y-101.05
X165.44Y-97.85
X165.5Y-101.05
X166.95Y-97.85
X166.97Y-101.05
X167.1Y-78.575
X167.4Y-86.875
X167.42Y-92.77
X167.42Y-93.81
X167.425Y-87.875
X167.675Y-96.325
X168.075Y-98.975
X168.475Y-101.05
X168.625Y-87.875
X169.15Y-90.375
X169.175Y-99.375
X169.91Y-101.05
X170.225Y-78.575
X170.675Y-90.4
X171.025Y-86.325
T3
X169.4Y-85.525
T4
X169.675Y-97.375
M30
