%TF.GenerationSoftware,KiCad,Pcbnew,9.0.6*%
%TF.CreationDate,2026-06-20T16:40:20-07:00*%
%TF.ProjectId,agb-e06-10,6167622d-6530-4362-9d31-302e6b696361,rev?*%
%TF.SameCoordinates,Original*%
%TF.FileFunction,Soldermask,Top*%
%TF.FilePolarity,Negative*%
%FSLAX46Y46*%
G04 Gerber Fmt 4.6, Leading zero omitted, Abs format (unit mm)*
G04 Created by KiCad (PCBNEW 9.0.6) date 2026-06-20 16:40:20*
%MOMM*%
%LPD*%
G01*
G04 APERTURE LIST*
G04 Aperture macros list*
%AMRoundRect*
0 Rectangle with rounded corners*
0 $1 Rounding radius*
0 $2 $3 $4 $5 $6 $7 $8 $9 X,Y pos of 4 corners*
0 Add a 4 corners polygon primitive as box body*
4,1,4,$2,$3,$4,$5,$6,$7,$8,$9,$2,$3,0*
0 Add four circle primitives for the rounded corners*
1,1,$1+$1,$2,$3*
1,1,$1+$1,$4,$5*
1,1,$1+$1,$6,$7*
1,1,$1+$1,$8,$9*
0 Add four rect primitives between the rounded corners*
20,1,$1+$1,$2,$3,$4,$5,0*
20,1,$1+$1,$4,$5,$6,$7,0*
20,1,$1+$1,$6,$7,$8,$9,0*
20,1,$1+$1,$8,$9,$2,$3,0*%
G04 Aperture macros list end*
%ADD10C,0.000000*%
%ADD11C,0.100000*%
%ADD12C,0.200000*%
%ADD13RoundRect,0.225000X0.250000X-0.225000X0.250000X0.225000X-0.250000X0.225000X-0.250000X-0.225000X0*%
%ADD14RoundRect,0.155000X0.155000X-0.212500X0.155000X0.212500X-0.155000X0.212500X-0.155000X-0.212500X0*%
%ADD15RoundRect,0.150000X-0.987500X-0.150000X0.987500X-0.150000X0.987500X0.150000X-0.987500X0.150000X0*%
%ADD16RoundRect,0.135000X0.185000X-0.135000X0.185000X0.135000X-0.185000X0.135000X-0.185000X-0.135000X0*%
%ADD17RoundRect,0.140000X0.170000X-0.140000X0.170000X0.140000X-0.170000X0.140000X-0.170000X-0.140000X0*%
%ADD18RoundRect,0.162500X0.162500X-0.637500X0.162500X0.637500X-0.162500X0.637500X-0.162500X-0.637500X0*%
%ADD19RoundRect,0.135000X0.135000X0.185000X-0.135000X0.185000X-0.135000X-0.185000X0.135000X-0.185000X0*%
%ADD20RoundRect,0.137500X-0.625000X-0.137500X0.625000X-0.137500X0.625000X0.137500X-0.625000X0.137500X0*%
G04 APERTURE END LIST*
D10*
G36*
X171180000Y-77170000D02*
G01*
X171180000Y-77170000D01*
G75*
G02*
X171730000Y-77720000I0J-550000D01*
G01*
X171180000Y-77720000D01*
X171180000Y-77170000D01*
G37*
G36*
X170839074Y-81211216D02*
G01*
X171639074Y-82861216D01*
X171264074Y-83761216D01*
X168539074Y-85061216D01*
X167164074Y-82186216D01*
X169889074Y-80886216D01*
X170839074Y-81211216D01*
G37*
G36*
X171180000Y-77720000D02*
G01*
X171730000Y-77720000D01*
X171730000Y-79670000D01*
X171180000Y-79670000D01*
X171180000Y-77720000D01*
G37*
G36*
X153430000Y-77170000D02*
G01*
X171180000Y-77170000D01*
X171180000Y-77720000D01*
X153430000Y-77720000D01*
X153430000Y-77170000D01*
G37*
G36*
X171180108Y-77720000D02*
G01*
X171730108Y-77720000D01*
X171730108Y-79670000D01*
X171180108Y-79670000D01*
X171180108Y-77720000D01*
G37*
G36*
X123161058Y-92910000D02*
G01*
X122236058Y-92910000D01*
X122236058Y-91980000D01*
X123161058Y-91980000D01*
X123161058Y-92910000D01*
G37*
D11*
X141807300Y-94960000D02*
X142432700Y-94960000D01*
X142432700Y-95900000D01*
X141807300Y-95900000D01*
X141807300Y-94960000D01*
G36*
X141807300Y-94960000D02*
G01*
X142432700Y-94960000D01*
X142432700Y-95900000D01*
X141807300Y-95900000D01*
X141807300Y-94960000D01*
G37*
G36*
X121850000Y-101550000D02*
G01*
X171428982Y-101550000D01*
X171428982Y-107350000D01*
X121850000Y-107350000D01*
X121850000Y-101550000D01*
G37*
X141807300Y-92860000D02*
X142432700Y-92860000D01*
X142432700Y-93800000D01*
X141807300Y-93800000D01*
X141807300Y-92860000D01*
G36*
X141807300Y-92860000D02*
G01*
X142432700Y-92860000D01*
X142432700Y-93800000D01*
X141807300Y-93800000D01*
X141807300Y-92860000D01*
G37*
G36*
X168225000Y-92900000D02*
G01*
X171175000Y-92900000D01*
X171175000Y-95850000D01*
X168225000Y-95850000D01*
X168225000Y-92900000D01*
G37*
D12*
X125830000Y-77240000D02*
X142980000Y-77240000D01*
X142980000Y-77530000D01*
X125830000Y-77530000D01*
X125830000Y-77240000D01*
G36*
X125830000Y-77240000D02*
G01*
X142980000Y-77240000D01*
X142980000Y-77530000D01*
X125830000Y-77530000D01*
X125830000Y-77240000D01*
G37*
D10*
G36*
X171180108Y-77170000D02*
G01*
X171180108Y-77170000D01*
G75*
G02*
X171730108Y-77720000I-8J-550000D01*
G01*
X171180108Y-77720000D01*
X171180108Y-77170000D01*
G37*
D11*
X124734496Y-80500000D02*
X121784496Y-80500000D01*
X121784496Y-77600000D01*
X124734496Y-77600000D01*
X124734496Y-80500000D01*
G36*
X124734496Y-80500000D02*
G01*
X121784496Y-80500000D01*
X121784496Y-77600000D01*
X124734496Y-77600000D01*
X124734496Y-80500000D01*
G37*
X143104600Y-94960000D02*
X143730000Y-94960000D01*
X143730000Y-95900000D01*
X143104600Y-95900000D01*
X143104600Y-94960000D01*
G36*
X143104600Y-94960000D02*
G01*
X143730000Y-94960000D01*
X143730000Y-95900000D01*
X143104600Y-95900000D01*
X143104600Y-94960000D01*
G37*
G36*
X153430108Y-77170000D02*
G01*
X171180108Y-77170000D01*
X171180108Y-77720000D01*
X153430108Y-77720000D01*
X153430108Y-77170000D01*
G37*
D10*
G36*
X170841088Y-81212967D02*
G01*
X171641088Y-82862967D01*
X171266088Y-83762967D01*
X168541088Y-85062967D01*
X167166088Y-82187967D01*
X169891088Y-80887967D01*
X170841088Y-81212967D01*
G37*
G36*
X152375000Y-94850000D02*
G01*
X149400000Y-96200000D01*
X148450000Y-95900000D01*
X147150000Y-93075000D01*
X147450000Y-92125000D01*
X150400000Y-90775000D01*
X152375000Y-94850000D01*
G37*
D11*
X143104600Y-92860000D02*
X143730000Y-92860000D01*
X143730000Y-93800000D01*
X143104600Y-93800000D01*
X143104600Y-92860000D01*
G36*
X143104600Y-92860000D02*
G01*
X143730000Y-92860000D01*
X143730000Y-93800000D01*
X143104600Y-93800000D01*
X143104600Y-92860000D01*
G37*
D13*
%TO.C,C5*%
X124200000Y-95975000D03*
X124200000Y-94425000D03*
%TD*%
D14*
%TO.C,C4*%
X144900000Y-83685000D03*
X144900000Y-82550000D03*
%TD*%
D15*
%TO.C,U2*%
X127450000Y-79525000D03*
X127450000Y-80795000D03*
X127450000Y-82065000D03*
X127450000Y-83335000D03*
X127450000Y-84605000D03*
X127450000Y-85875000D03*
X127450000Y-87145000D03*
X127450000Y-88415000D03*
X127450000Y-89685000D03*
X127450000Y-90955000D03*
X127450000Y-92225000D03*
X127450000Y-93495000D03*
X127450000Y-94765000D03*
X127450000Y-96035000D03*
X138575000Y-96035000D03*
X138575000Y-94765000D03*
X138575000Y-93495000D03*
X138575000Y-92225000D03*
X138575000Y-90955000D03*
X138575000Y-89685000D03*
X138575000Y-88415000D03*
X138575000Y-87145000D03*
X138575000Y-85875000D03*
X138575000Y-84605000D03*
X138575000Y-83335000D03*
X138575000Y-82065000D03*
X138575000Y-80795000D03*
X138575000Y-79525000D03*
%TD*%
D16*
%TO.C,R4*%
X141175000Y-87095000D03*
X141175000Y-86075000D03*
%TD*%
D14*
%TO.C,C2*%
X167500000Y-91775000D03*
X167500000Y-90640000D03*
%TD*%
D17*
%TO.C,C6*%
X145025000Y-94925000D03*
X145025000Y-93965000D03*
%TD*%
D18*
%TO.C,BU9803F*%
X146400000Y-89085000D03*
X147670000Y-89085000D03*
X148940000Y-89085000D03*
X150210000Y-89085000D03*
X150210000Y-83210000D03*
X148940000Y-83210000D03*
X147670000Y-83210000D03*
X146400000Y-83210000D03*
%TD*%
D16*
%TO.C,R3*%
X152250000Y-87545000D03*
X152250000Y-86525000D03*
%TD*%
D19*
%TO.C,R2*%
X143175000Y-91425000D03*
X142155000Y-91425000D03*
%TD*%
D20*
%TO.C,U1  GP10  MASKROM*%
X154160000Y-79360000D03*
X154160000Y-80160000D03*
X154160000Y-80960000D03*
X154160000Y-81760000D03*
X154160000Y-82560000D03*
X154160000Y-83360000D03*
X154160000Y-84160000D03*
X154160000Y-84960000D03*
X154160000Y-85760000D03*
X154160000Y-86560000D03*
X154160000Y-87360000D03*
X154160000Y-88160000D03*
X154160000Y-88960000D03*
X154160000Y-89760000D03*
X154160000Y-90560000D03*
X154160000Y-91360000D03*
X154160000Y-92160000D03*
X154160000Y-92960000D03*
X154160000Y-93760000D03*
X154160000Y-94560000D03*
X154160000Y-95360000D03*
X154160000Y-96160000D03*
X165335000Y-96160000D03*
X165335000Y-95360000D03*
X165335000Y-94560000D03*
X165335000Y-93760000D03*
X165335000Y-92960000D03*
X165335000Y-92160000D03*
X165335000Y-91360000D03*
X165335000Y-90560000D03*
X165335000Y-89760000D03*
X165335000Y-88960000D03*
X165335000Y-88160000D03*
X165335000Y-87360000D03*
X165335000Y-86560000D03*
X165335000Y-85760000D03*
X165335000Y-84960000D03*
X165335000Y-84160000D03*
X165335000Y-83360000D03*
X165335000Y-82560000D03*
X165335000Y-81760000D03*
X165335000Y-80960000D03*
X165335000Y-80160000D03*
X165335000Y-79360000D03*
%TD*%
D13*
%TO.C,C3*%
X141450000Y-81875000D03*
X141450000Y-80325000D03*
%TD*%
D16*
%TO.C,R1*%
X145125000Y-92075000D03*
X145125000Y-91055000D03*
%TD*%
D14*
%TO.C,C1*%
X151975000Y-83100000D03*
X151975000Y-81965000D03*
%TD*%
%TO.C,C3*%
X143400000Y-83535000D03*
X143400000Y-82400000D03*
%TD*%
M02*
