%TF.GenerationSoftware,KiCad,Pcbnew,9.0.6*%
%TF.CreationDate,2026-06-23T20:58:25-07:00*%
%TF.ProjectId,agb-e06-10,6167622d-6530-4362-9d31-302e6b696361,rev?*%
%TF.SameCoordinates,Original*%
%TF.FileFunction,Profile,NP*%
%FSLAX46Y46*%
G04 Gerber Fmt 4.6, Leading zero omitted, Abs format (unit mm)*
G04 Created by KiCad (PCBNEW 9.0.6) date 2026-06-23 20:58:25*
%MOMM*%
%LPD*%
G01*
G04 APERTURE LIST*
%TA.AperFunction,Profile*%
%ADD10C,0.050000*%
%TD*%
G04 APERTURE END LIST*
D10*
X122050000Y-76550000D02*
X142950000Y-76550000D01*
X121050000Y-77550000D02*
G75*
G02*
X122050000Y-76550000I1000000J0D01*
G01*
X121550000Y-89000000D02*
G75*
G02*
X121050000Y-88500000I0J500000D01*
G01*
X121050000Y-88500000D02*
X121050000Y-77550000D01*
X121050000Y-91200000D02*
G75*
G02*
X121550000Y-90700000I500000J0D01*
G01*
X123100000Y-89200000D02*
X123100000Y-90500000D01*
X171550000Y-87350000D02*
X170200000Y-87350000D01*
X171550000Y-98550000D02*
X171500000Y-98550000D01*
X121050000Y-91200000D02*
X121050000Y-98050000D01*
X122900000Y-89000000D02*
G75*
G02*
X123100000Y-89200000I0J-200000D01*
G01*
X121850000Y-98800000D02*
X121850000Y-106050000D01*
X170200000Y-89050000D02*
G75*
G02*
X170000000Y-88850000I0J200000D01*
G01*
X171250000Y-98800000D02*
X171250000Y-106050000D01*
X142950000Y-76550000D02*
G75*
G02*
X143450000Y-77050000I0J-500000D01*
G01*
X150250000Y-76550000D02*
X171050000Y-76550000D01*
X121550000Y-89000000D02*
X122900000Y-89000000D01*
X172050000Y-89550000D02*
X172050000Y-98050000D01*
X172050000Y-86850000D02*
G75*
G02*
X171550000Y-87350000I-500000J0D01*
G01*
X123150000Y-107350000D02*
X169950000Y-107350000D01*
X121600000Y-98550000D02*
G75*
G02*
X121850000Y-98800000I0J-250000D01*
G01*
X171250000Y-98800000D02*
G75*
G02*
X171500000Y-98550000I250000J0D01*
G01*
X135575000Y-79475000D02*
G75*
G02*
X134585050Y-79475000I-494975J0D01*
G01*
X134585050Y-79475000D02*
G75*
G02*
X135575000Y-79475000I494975J0D01*
G01*
X152694975Y-98844975D02*
G75*
G02*
X151705025Y-98844975I-494975J0D01*
G01*
X151705025Y-98844975D02*
G75*
G02*
X152694975Y-98844975I494975J0D01*
G01*
X123150000Y-107350000D02*
G75*
G02*
X121850000Y-106050000I0J1300000D01*
G01*
X171250000Y-106050000D02*
G75*
G02*
X169950000Y-107350000I-1300000J0D01*
G01*
X121550000Y-98550000D02*
G75*
G02*
X121050000Y-98050000I0J500000D01*
G01*
X122900000Y-90700000D02*
X121550000Y-90700000D01*
X149750000Y-77050000D02*
G75*
G02*
X150250000Y-76550000I500000J0D01*
G01*
X171550000Y-89050000D02*
G75*
G02*
X172050000Y-89550000I0J-500000D01*
G01*
X123100000Y-90500000D02*
G75*
G02*
X122900000Y-90700000I-200000J0D01*
G01*
X152544975Y-80244975D02*
G75*
G02*
X151555025Y-80244975I-494975J0D01*
G01*
X151555025Y-80244975D02*
G75*
G02*
X152544975Y-80244975I494975J0D01*
G01*
X170000000Y-87550000D02*
G75*
G02*
X170200000Y-87350000I200000J0D01*
G01*
X172050000Y-98050000D02*
G75*
G02*
X171550000Y-98550000I-500000J0D01*
G01*
X149750000Y-77500000D02*
X149750000Y-77050000D01*
X171050000Y-76550000D02*
G75*
G02*
X172050000Y-77550000I0J-1000000D01*
G01*
X172050000Y-86850000D02*
X172050000Y-77550000D01*
X170200000Y-89050000D02*
X171550000Y-89050000D01*
X121550000Y-98550000D02*
X121600000Y-98550000D01*
X149750000Y-77500000D02*
G75*
G02*
X143450000Y-77500000I-3150000J0D01*
G01*
X170000000Y-87550000D02*
X170000000Y-88850000D01*
X143450000Y-77050000D02*
X143450000Y-77500000D01*
M02*
