%TF.GenerationSoftware,KiCad,Pcbnew,9.0.6*%
%TF.CreationDate,2026-06-20T16:40:20-07:00*%
%TF.ProjectId,agb-e06-10,6167622d-6530-4362-9d31-302e6b696361,rev?*%
%TF.SameCoordinates,Original*%
%TF.FileFunction,Soldermask,Bot*%
%TF.FilePolarity,Negative*%
%FSLAX46Y46*%
G04 Gerber Fmt 4.6, Leading zero omitted, Abs format (unit mm)*
G04 Created by KiCad (PCBNEW 9.0.6) date 2026-06-20 16:40:20*
%MOMM*%
%LPD*%
G01*
G04 APERTURE LIST*
%ADD10C,0.959609*%
%ADD11C,0.000000*%
%ADD12C,0.200000*%
%ADD13C,0.823886*%
%ADD14C,0.150000*%
%ADD15C,0.100000*%
G04 APERTURE END LIST*
G36*
X151045000Y-101610000D02*
G01*
X151395000Y-101610000D01*
X151395000Y-107360000D01*
X151045000Y-107360000D01*
X151045000Y-101610000D01*
G37*
D10*
X125289804Y-79952140D02*
G75*
G02*
X124330196Y-79952140I-479804J0D01*
G01*
X124330196Y-79952140D02*
G75*
G02*
X125289804Y-79952140I479804J0D01*
G01*
G36*
X137453982Y-101600000D02*
G01*
X137803982Y-101600000D01*
X137803982Y-107350000D01*
X137453982Y-107350000D01*
X137453982Y-101600000D01*
G37*
G36*
X143453982Y-101600000D02*
G01*
X143803982Y-101600000D01*
X143803982Y-107350000D01*
X143453982Y-107350000D01*
X143453982Y-101600000D01*
G37*
G36*
X161545000Y-101610000D02*
G01*
X161895000Y-101610000D01*
X161895000Y-107360000D01*
X161545000Y-107360000D01*
X161545000Y-101610000D01*
G37*
G36*
X122700000Y-78530000D02*
G01*
X123730000Y-78530000D01*
X123730000Y-79550000D01*
X122700000Y-79550000D01*
X122700000Y-78530000D01*
G37*
G36*
X140453982Y-101600000D02*
G01*
X140803982Y-101600000D01*
X140803982Y-107350000D01*
X140453982Y-107350000D01*
X140453982Y-101600000D01*
G37*
G36*
X126953982Y-101600000D02*
G01*
X127303982Y-101600000D01*
X127303982Y-107350000D01*
X126953982Y-107350000D01*
X126953982Y-101600000D01*
G37*
D11*
G36*
X168390000Y-84590000D02*
G01*
X167980000Y-84590000D01*
X167960000Y-82250000D01*
X167460000Y-82250000D01*
X167460000Y-81960000D01*
X168390000Y-81960000D01*
X168390000Y-84590000D01*
G37*
G36*
X148045000Y-101590000D02*
G01*
X148395000Y-101590000D01*
X148395000Y-107340000D01*
X148045000Y-107340000D01*
X148045000Y-101590000D01*
G37*
G36*
X152545000Y-101600000D02*
G01*
X152895000Y-101600000D01*
X152895000Y-107350000D01*
X152545000Y-107350000D01*
X152545000Y-101600000D01*
G37*
G36*
X141953982Y-101600000D02*
G01*
X142303982Y-101600000D01*
X142303982Y-107350000D01*
X141953982Y-107350000D01*
X141953982Y-101600000D01*
G37*
G36*
X164545000Y-101600000D02*
G01*
X164895000Y-101600000D01*
X164895000Y-107350000D01*
X164545000Y-107350000D01*
X164545000Y-101600000D01*
G37*
G36*
X163045000Y-101610000D02*
G01*
X163395000Y-101610000D01*
X163395000Y-107360000D01*
X163045000Y-107360000D01*
X163045000Y-101610000D01*
G37*
D12*
X168030000Y-83990000D02*
G75*
G02*
X167357988Y-83990000I-336006J0D01*
G01*
X167357988Y-83990000D02*
G75*
G02*
X168030000Y-83990000I336006J0D01*
G01*
G36*
X138953982Y-101600000D02*
G01*
X139303982Y-101600000D01*
X139303982Y-107350000D01*
X138953982Y-107350000D01*
X138953982Y-101600000D01*
G37*
G36*
X168690000Y-78995000D02*
G01*
X170070000Y-78995000D01*
X170070000Y-81625000D01*
X168690000Y-81625000D01*
X168690000Y-78995000D01*
G37*
G36*
X132953982Y-101600000D02*
G01*
X133303982Y-101600000D01*
X133303982Y-107350000D01*
X132953982Y-107350000D01*
X132953982Y-101600000D01*
G37*
G36*
X128453982Y-101600000D02*
G01*
X128803982Y-101600000D01*
X128803982Y-107350000D01*
X128453982Y-107350000D01*
X128453982Y-101600000D01*
G37*
G36*
X149545000Y-101620000D02*
G01*
X149895000Y-101620000D01*
X149895000Y-107370000D01*
X149545000Y-107370000D01*
X149545000Y-101620000D01*
G37*
G36*
X160045000Y-101610000D02*
G01*
X160395000Y-101610000D01*
X160395000Y-107360000D01*
X160045000Y-107360000D01*
X160045000Y-101610000D01*
G37*
G36*
X166045000Y-101600000D02*
G01*
X166395000Y-101600000D01*
X166395000Y-107350000D01*
X166045000Y-107350000D01*
X166045000Y-101600000D01*
G37*
X168040000Y-83300000D02*
G75*
G02*
X167367988Y-83300000I-336006J0D01*
G01*
X167367988Y-83300000D02*
G75*
G02*
X168040000Y-83300000I336006J0D01*
G01*
D10*
X125289804Y-82932140D02*
G75*
G02*
X124330196Y-82932140I-479804J0D01*
G01*
X124330196Y-82932140D02*
G75*
G02*
X125289804Y-82932140I479804J0D01*
G01*
G36*
X169211283Y-93861416D02*
G01*
X170188717Y-93861416D01*
X170188717Y-94838585D01*
X169211283Y-94838585D01*
X169211283Y-93861416D01*
G37*
G36*
X169050000Y-101600000D02*
G01*
X169400000Y-101600000D01*
X169400000Y-107350000D01*
X169050000Y-107350000D01*
X169050000Y-101600000D01*
G37*
G36*
X154060000Y-101600000D02*
G01*
X154410000Y-101600000D01*
X154410000Y-107350000D01*
X154060000Y-107350000D01*
X154060000Y-101600000D01*
G37*
G36*
X135953982Y-101600000D02*
G01*
X136303982Y-101600000D01*
X136303982Y-107350000D01*
X135953982Y-107350000D01*
X135953982Y-101600000D01*
G37*
X125289804Y-85912140D02*
G75*
G02*
X124330196Y-85912140I-479804J0D01*
G01*
X124330196Y-85912140D02*
G75*
G02*
X125289804Y-85912140I479804J0D01*
G01*
G36*
X131453982Y-101600000D02*
G01*
X131803982Y-101600000D01*
X131803982Y-107350000D01*
X131453982Y-107350000D01*
X131453982Y-101600000D01*
G37*
G36*
X121820000Y-101600000D02*
G01*
X122800000Y-101600000D01*
X122800000Y-107350000D01*
X121820000Y-107350000D01*
X121820000Y-101600000D01*
G37*
G36*
X123970000Y-101600000D02*
G01*
X124320000Y-101600000D01*
X124320000Y-107350000D01*
X123970000Y-107350000D01*
X123970000Y-101600000D01*
G37*
G36*
X168680000Y-81960000D02*
G01*
X170060000Y-81960000D01*
X170060000Y-84590000D01*
X168680000Y-84590000D01*
X168680000Y-81960000D01*
G37*
G36*
X157055000Y-101610000D02*
G01*
X157405000Y-101610000D01*
X157405000Y-107360000D01*
X157055000Y-107360000D01*
X157055000Y-101610000D01*
G37*
G36*
X170553982Y-101600000D02*
G01*
X171453982Y-101600000D01*
X171453982Y-107350000D01*
X170553982Y-107350000D01*
X170553982Y-101600000D01*
G37*
G36*
X167555000Y-101610000D02*
G01*
X167905000Y-101610000D01*
X167905000Y-107360000D01*
X167555000Y-107360000D01*
X167555000Y-101610000D01*
G37*
G36*
X146485000Y-101580000D02*
G01*
X146835000Y-101580000D01*
X146835000Y-107330000D01*
X146485000Y-107330000D01*
X146485000Y-101580000D01*
G37*
G36*
X134453982Y-101600000D02*
G01*
X134803982Y-101600000D01*
X134803982Y-107350000D01*
X134453982Y-107350000D01*
X134453982Y-101600000D01*
G37*
D12*
X168036006Y-82580000D02*
G75*
G02*
X167363994Y-82580000I-336006J0D01*
G01*
X167363994Y-82580000D02*
G75*
G02*
X168036006Y-82580000I336006J0D01*
G01*
D11*
G36*
X167490000Y-82320000D02*
G01*
X167400000Y-82380000D01*
X167350000Y-82570000D01*
X167520000Y-82860000D01*
X168050000Y-82870000D01*
X168050000Y-82980000D01*
X167780000Y-82960000D01*
X167590000Y-82980000D01*
X167410000Y-83330000D01*
X167470000Y-83580000D01*
X168040000Y-83590000D01*
X168040000Y-83710000D01*
X167720000Y-83700000D01*
X167430000Y-83800000D01*
X167440000Y-84270000D01*
X167980000Y-84290000D01*
X167980000Y-84590000D01*
X167000000Y-84590000D01*
X167000000Y-81960000D01*
X167490000Y-81960000D01*
X167490000Y-82320000D01*
G37*
G36*
X158545000Y-101600000D02*
G01*
X158895000Y-101600000D01*
X158895000Y-107350000D01*
X158545000Y-107350000D01*
X158545000Y-101600000D01*
G37*
G36*
X167000000Y-79000000D02*
G01*
X168380000Y-79000000D01*
X168380000Y-81630000D01*
X167000000Y-81630000D01*
X167000000Y-79000000D01*
G37*
G36*
X144953982Y-101600000D02*
G01*
X145303982Y-101600000D01*
X145303982Y-107350000D01*
X144953982Y-107350000D01*
X144953982Y-101600000D01*
G37*
G36*
X125453982Y-101600000D02*
G01*
X125803982Y-101600000D01*
X125803982Y-107350000D01*
X125453982Y-107350000D01*
X125453982Y-101600000D01*
G37*
D13*
X125231943Y-88890000D02*
G75*
G02*
X124408057Y-88890000I-411943J0D01*
G01*
X124408057Y-88890000D02*
G75*
G02*
X125231943Y-88890000I411943J0D01*
G01*
G36*
X129953982Y-101600000D02*
G01*
X130303982Y-101600000D01*
X130303982Y-107350000D01*
X129953982Y-107350000D01*
X129953982Y-101600000D01*
G37*
G36*
X155560000Y-101590000D02*
G01*
X155910000Y-101590000D01*
X155910000Y-107340000D01*
X155560000Y-107340000D01*
X155560000Y-101590000D01*
G37*
D14*
G36*
X122717644Y-85315907D02*
G01*
X122665865Y-85315907D01*
X122653764Y-85318492D01*
X122640708Y-85327081D01*
X122631349Y-85340101D01*
X122628068Y-85357855D01*
X122628068Y-85995818D01*
X122631163Y-86013805D01*
X122639975Y-86027325D01*
X122652714Y-86036397D01*
X122665865Y-86039232D01*
X122717644Y-86039232D01*
X122730613Y-86036226D01*
X122742801Y-86026592D01*
X122751126Y-86012763D01*
X122753975Y-85995818D01*
X122753975Y-85748217D01*
X123597590Y-85748217D01*
X123610540Y-85745333D01*
X123622076Y-85736310D01*
X123629862Y-85723101D01*
X123632578Y-85706268D01*
X123632578Y-85647466D01*
X123629758Y-85629595D01*
X123622076Y-85617363D01*
X123610654Y-85609499D01*
X123597590Y-85606922D01*
X122753975Y-85606922D01*
X122753975Y-85357855D01*
X122751027Y-85339973D01*
X122742801Y-85327081D01*
X122730726Y-85318612D01*
X122717644Y-85315907D01*
G37*
G36*
X123610545Y-86268638D02*
G01*
X123622076Y-86277613D01*
X123629915Y-86290639D01*
X123632578Y-86306311D01*
X123632578Y-86365052D01*
X123629882Y-86382048D01*
X123622076Y-86395826D01*
X123610482Y-86405434D01*
X123597590Y-86408466D01*
X123180729Y-86408466D01*
X123180729Y-86598731D01*
X123172110Y-86675740D01*
X123153844Y-86737216D01*
X123127225Y-86786109D01*
X123092557Y-86824656D01*
X123034705Y-86867920D01*
X122982746Y-86893612D01*
X122935204Y-86905073D01*
X122862666Y-86906170D01*
X122800870Y-86893166D01*
X122764115Y-86875272D01*
X122725200Y-86844446D01*
X122683389Y-86797362D01*
X122659064Y-86758455D01*
X122641458Y-86713215D01*
X122630862Y-86660457D01*
X122628068Y-86598731D01*
X122628068Y-86594518D01*
X122753975Y-86594518D01*
X122758747Y-86646919D01*
X122772172Y-86690322D01*
X122795615Y-86726878D01*
X122829569Y-86754009D01*
X122869226Y-86771061D01*
X122906505Y-86776418D01*
X122943639Y-86769199D01*
X122986250Y-86744911D01*
X123021751Y-86709931D01*
X123042182Y-86670783D01*
X123052930Y-86628928D01*
X123056165Y-86594518D01*
X123056165Y-86408466D01*
X122753975Y-86408466D01*
X122753975Y-86594518D01*
X122628068Y-86594518D01*
X122628068Y-86306311D01*
X122631291Y-86289726D01*
X122640708Y-86276941D01*
X122653764Y-86268353D01*
X122665865Y-86265767D01*
X123597590Y-86265767D01*
X123610545Y-86268638D01*
G37*
G36*
X123646561Y-87389284D02*
G01*
X123643214Y-87332902D01*
X123633699Y-87283810D01*
X123618595Y-87240968D01*
X123587176Y-87183156D01*
X123554237Y-87143698D01*
X123516014Y-87112750D01*
X123475225Y-87089171D01*
X123432100Y-87073460D01*
X123390533Y-87067494D01*
X123378597Y-87069211D01*
X123366109Y-87077936D01*
X123357297Y-87091456D01*
X123354202Y-87109443D01*
X123354202Y-87162627D01*
X123357099Y-87179335D01*
X123365376Y-87191997D01*
X123377217Y-87201255D01*
X123389190Y-87205980D01*
X123431140Y-87218286D01*
X123464648Y-87239142D01*
X123491284Y-87268934D01*
X123510531Y-87304852D01*
X123522237Y-87344652D01*
X123526271Y-87389284D01*
X123520670Y-87444386D01*
X123505044Y-87488577D01*
X123480109Y-87524228D01*
X123446432Y-87551359D01*
X123405208Y-87568021D01*
X123354202Y-87573932D01*
X123312052Y-87570571D01*
X123277816Y-87561240D01*
X123249972Y-87546638D01*
X123216221Y-87515714D01*
X123196788Y-87480143D01*
X123186666Y-87441264D01*
X123183476Y-87406015D01*
X123183476Y-87341718D01*
X123180605Y-87324885D01*
X123172302Y-87311615D01*
X123160171Y-87302565D01*
X123147145Y-87299708D01*
X123096770Y-87299708D01*
X123083745Y-87302565D01*
X123071613Y-87311615D01*
X123063264Y-87324890D01*
X123060378Y-87341718D01*
X123060378Y-87406015D01*
X123054589Y-87449130D01*
X123037297Y-87488569D01*
X123010643Y-87521511D01*
X122978557Y-87543157D01*
X122942362Y-87555833D01*
X122906505Y-87559949D01*
X122867915Y-87555804D01*
X122829569Y-87543157D01*
X122796562Y-87520297D01*
X122770828Y-87482951D01*
X122755130Y-87438107D01*
X122749823Y-87389284D01*
X122753926Y-87345651D01*
X122765841Y-87306795D01*
X122785483Y-87271742D01*
X122812479Y-87243381D01*
X122845702Y-87225342D01*
X122886905Y-87217154D01*
X122898940Y-87212497D01*
X122911390Y-87203171D01*
X122920236Y-87190448D01*
X122923297Y-87173801D01*
X122923297Y-87117869D01*
X122920260Y-87101095D01*
X122911390Y-87087766D01*
X122898846Y-87078991D01*
X122886905Y-87077264D01*
X122851386Y-87082353D01*
X122809296Y-87096132D01*
X122767743Y-87117599D01*
X122724666Y-87149316D01*
X122687259Y-87190334D01*
X122655362Y-87247257D01*
X122640575Y-87289610D01*
X122631311Y-87337566D01*
X122628068Y-87392032D01*
X122631893Y-87447680D01*
X122643456Y-87503285D01*
X122664107Y-87555761D01*
X122695235Y-87602569D01*
X122735491Y-87642154D01*
X122784078Y-87673217D01*
X122838860Y-87693035D01*
X122900887Y-87699839D01*
X122960757Y-87694727D01*
X123010445Y-87680365D01*
X123051892Y-87657547D01*
X123086493Y-87626142D01*
X123114966Y-87585106D01*
X123137603Y-87617777D01*
X123168631Y-87648039D01*
X123209427Y-87676025D01*
X123254175Y-87696668D01*
X123304381Y-87709399D01*
X123361163Y-87713822D01*
X123411013Y-87708992D01*
X123461242Y-87694221D01*
X123508632Y-87669927D01*
X123553565Y-87634809D01*
X123591187Y-87590122D01*
X123621343Y-87531983D01*
X123639999Y-87466273D01*
X123646561Y-87389284D01*
G37*
G36*
X166436015Y-80036836D02*
G01*
X166450429Y-80034468D01*
X166462210Y-80027567D01*
X166470286Y-80017173D01*
X166472957Y-80004529D01*
X166466844Y-79982968D01*
X166235992Y-79081187D01*
X166617634Y-79081187D01*
X166637351Y-79077939D01*
X166651486Y-79068895D01*
X166660803Y-79055556D01*
X166663777Y-79041155D01*
X166663777Y-78988833D01*
X166660933Y-78975522D01*
X166651486Y-78961160D01*
X166637216Y-78950923D01*
X166617634Y-78947323D01*
X166102062Y-78947323D01*
X166082538Y-78950920D01*
X166068277Y-78961160D01*
X166058776Y-78975526D01*
X166055918Y-78988833D01*
X166055918Y-79024229D01*
X166081790Y-79134653D01*
X166309876Y-80002984D01*
X166321903Y-80021856D01*
X166338803Y-80032894D01*
X166362199Y-80036836D01*
X166436015Y-80036836D01*
G37*
G36*
X166688843Y-84519910D02*
G01*
X166688843Y-83707393D01*
X166742385Y-83692521D01*
X166769943Y-83673056D01*
X166781405Y-83650587D01*
X166780782Y-83622696D01*
X166773377Y-83601206D01*
X166731048Y-83527319D01*
X166694653Y-83477311D01*
X166667265Y-83453791D01*
X166646033Y-83447323D01*
X166601960Y-83447323D01*
X166585938Y-83450923D01*
X166574262Y-83461160D01*
X166566533Y-83475522D01*
X166564206Y-83488833D01*
X166564206Y-84521455D01*
X166570194Y-84535196D01*
X166595695Y-84549933D01*
X166627030Y-84555508D01*
X166658013Y-84549127D01*
X166682944Y-84533831D01*
X166688843Y-84519910D01*
G37*
G36*
X165566394Y-84399883D02*
G01*
X165549956Y-84403068D01*
X165536829Y-84412241D01*
X165527673Y-84425705D01*
X165524849Y-84439914D01*
X165524849Y-84498349D01*
X165527566Y-84512536D01*
X165536169Y-84525283D01*
X165548903Y-84533759D01*
X165566394Y-84536836D01*
X166082638Y-84536836D01*
X166099980Y-84533558D01*
X166112259Y-84524544D01*
X166120430Y-84511412D01*
X166122920Y-84498349D01*
X166122920Y-84441459D01*
X166118560Y-84351069D01*
X166104348Y-84282190D01*
X166082115Y-84230140D01*
X166052413Y-84191397D01*
X165835837Y-83963635D01*
X165760426Y-83875515D01*
X165714812Y-83810719D01*
X165690605Y-83763929D01*
X165680975Y-83730431D01*
X165679265Y-83681459D01*
X165690477Y-83640925D01*
X165714992Y-83605837D01*
X165747763Y-83579231D01*
X165783323Y-83563445D01*
X165822648Y-83558081D01*
X165862410Y-83562462D01*
X165898673Y-83575290D01*
X165932172Y-83596568D01*
X165959214Y-83626163D01*
X165975107Y-83662368D01*
X165980642Y-83707393D01*
X165987257Y-83733951D01*
X166000256Y-83752697D01*
X166020763Y-83765149D01*
X166051809Y-83770463D01*
X166082478Y-83766342D01*
X166101520Y-83754384D01*
X166112617Y-83735522D01*
X166116655Y-83707393D01*
X166113060Y-83663280D01*
X166101857Y-83616884D01*
X166082034Y-83567351D01*
X166055552Y-83523481D01*
X166022277Y-83488037D01*
X165981302Y-83460421D01*
X165913679Y-83433871D01*
X165842816Y-83423479D01*
X165773035Y-83426235D01*
X165718124Y-83438054D01*
X165668757Y-83461392D01*
X165625580Y-83497296D01*
X165589635Y-83543898D01*
X165561998Y-83599658D01*
X165551135Y-83640756D01*
X165546875Y-83695811D01*
X165551282Y-83768918D01*
X165562025Y-83819374D01*
X165583923Y-83872897D01*
X165619214Y-83930664D01*
X165670918Y-83993658D01*
X165871722Y-84207517D01*
X165932731Y-84278699D01*
X165960295Y-84324003D01*
X165968058Y-84352194D01*
X165968058Y-84382957D01*
X165968058Y-84399883D01*
X165566394Y-84399883D01*
G37*
G36*
X170515252Y-80039910D02*
G01*
X170515252Y-79227393D01*
X170580692Y-79212521D01*
X170614375Y-79193056D01*
X170628384Y-79170587D01*
X170627622Y-79142696D01*
X170618572Y-79121206D01*
X170566837Y-79047319D01*
X170522354Y-78997311D01*
X170488880Y-78973791D01*
X170462930Y-78967323D01*
X170409062Y-78967323D01*
X170389480Y-78970923D01*
X170375210Y-78981160D01*
X170365762Y-78995522D01*
X170362918Y-79008833D01*
X170362918Y-80041455D01*
X170370238Y-80055196D01*
X170401405Y-80069933D01*
X170439704Y-80075508D01*
X170477572Y-80069127D01*
X170508042Y-80053831D01*
X170515252Y-80039910D01*
G37*
G36*
X126194092Y-77627644D02*
G01*
X126194092Y-77575865D01*
X126191507Y-77563764D01*
X126182918Y-77550708D01*
X126169898Y-77541349D01*
X126152144Y-77538068D01*
X125514181Y-77538068D01*
X125496194Y-77541163D01*
X125482674Y-77549975D01*
X125473602Y-77562714D01*
X125470767Y-77575865D01*
X125470767Y-77627644D01*
X125473773Y-77640613D01*
X125483407Y-77652801D01*
X125497236Y-77661126D01*
X125514181Y-77663975D01*
X125761782Y-77663975D01*
X125761782Y-78507590D01*
X125764666Y-78520540D01*
X125773689Y-78532076D01*
X125786898Y-78539862D01*
X125803731Y-78542578D01*
X125862533Y-78542578D01*
X125880404Y-78539758D01*
X125892636Y-78532076D01*
X125900500Y-78520654D01*
X125903077Y-78507590D01*
X125903077Y-77663975D01*
X126152144Y-77663975D01*
X126170026Y-77661027D01*
X126182918Y-77652801D01*
X126191387Y-77640726D01*
X126194092Y-77627644D01*
G37*
G36*
X125220273Y-77541291D02*
G01*
X125233058Y-77550708D01*
X125241646Y-77563764D01*
X125244232Y-77575865D01*
X125244232Y-78507590D01*
X125241361Y-78520545D01*
X125232386Y-78532076D01*
X125219360Y-78539915D01*
X125203688Y-78542578D01*
X125144947Y-78542578D01*
X125127951Y-78539882D01*
X125114173Y-78532076D01*
X125104565Y-78520482D01*
X125101533Y-78507590D01*
X125101533Y-78090729D01*
X124911268Y-78090729D01*
X124834259Y-78082110D01*
X124772783Y-78063844D01*
X124723890Y-78037225D01*
X124685343Y-78002557D01*
X124642079Y-77944705D01*
X124616387Y-77892746D01*
X124604926Y-77845204D01*
X124604492Y-77816505D01*
X124733581Y-77816505D01*
X124740800Y-77853639D01*
X124765088Y-77896250D01*
X124800068Y-77931751D01*
X124839216Y-77952182D01*
X124881071Y-77962930D01*
X124915481Y-77966165D01*
X125101533Y-77966165D01*
X125101533Y-77663975D01*
X124915481Y-77663975D01*
X124863080Y-77668747D01*
X124819677Y-77682172D01*
X124783121Y-77705615D01*
X124755990Y-77739569D01*
X124738938Y-77779226D01*
X124733581Y-77816505D01*
X124604492Y-77816505D01*
X124603829Y-77772666D01*
X124616833Y-77710870D01*
X124634727Y-77674115D01*
X124665553Y-77635200D01*
X124712637Y-77593389D01*
X124751544Y-77569064D01*
X124796784Y-77551458D01*
X124849542Y-77540862D01*
X124911268Y-77538068D01*
X125203688Y-77538068D01*
X125220273Y-77541291D01*
G37*
G36*
X124141720Y-78527191D02*
G01*
X124141720Y-77788539D01*
X124201210Y-77775019D01*
X124231831Y-77757323D01*
X124244567Y-77736897D01*
X124243874Y-77711542D01*
X124235647Y-77692005D01*
X124188614Y-77624836D01*
X124148176Y-77579374D01*
X124117744Y-77557992D01*
X124094153Y-77552112D01*
X124045183Y-77552112D01*
X124027381Y-77555384D01*
X124014408Y-77564691D01*
X124005819Y-77577747D01*
X124003234Y-77589848D01*
X124003234Y-78528595D01*
X124009888Y-78541087D01*
X124038222Y-78554485D01*
X124073039Y-78559552D01*
X124107465Y-78553752D01*
X124135165Y-78539846D01*
X124141720Y-78527191D01*
G37*
G36*
X124387644Y-89885907D02*
G01*
X124335865Y-89885907D01*
X124323764Y-89888492D01*
X124310708Y-89897081D01*
X124301349Y-89910101D01*
X124298068Y-89927855D01*
X124298068Y-90565818D01*
X124301163Y-90583805D01*
X124309975Y-90597325D01*
X124322714Y-90606397D01*
X124335865Y-90609232D01*
X124387644Y-90609232D01*
X124400613Y-90606226D01*
X124412801Y-90596592D01*
X124421126Y-90582763D01*
X124423975Y-90565818D01*
X124423975Y-90318217D01*
X125267590Y-90318217D01*
X125280540Y-90315333D01*
X125292076Y-90306310D01*
X125299862Y-90293101D01*
X125302578Y-90276268D01*
X125302578Y-90217466D01*
X125299758Y-90199595D01*
X125292076Y-90187363D01*
X125280654Y-90179499D01*
X125267590Y-90176922D01*
X124423975Y-90176922D01*
X124423975Y-89927855D01*
X124421027Y-89909973D01*
X124412801Y-89897081D01*
X124400726Y-89888612D01*
X124387644Y-89885907D01*
G37*
G36*
X125280545Y-90838638D02*
G01*
X125292076Y-90847613D01*
X125299915Y-90860639D01*
X125302578Y-90876311D01*
X125302578Y-90935052D01*
X125299882Y-90952048D01*
X125292076Y-90965826D01*
X125280482Y-90975434D01*
X125267590Y-90978466D01*
X124850729Y-90978466D01*
X124850729Y-91168731D01*
X124842110Y-91245740D01*
X124823844Y-91307216D01*
X124797225Y-91356109D01*
X124762557Y-91394656D01*
X124704705Y-91437920D01*
X124652746Y-91463612D01*
X124605204Y-91475073D01*
X124532666Y-91476170D01*
X124470870Y-91463166D01*
X124434115Y-91445272D01*
X124395200Y-91414446D01*
X124353389Y-91367362D01*
X124329064Y-91328455D01*
X124311458Y-91283215D01*
X124300862Y-91230457D01*
X124298068Y-91168731D01*
X124298068Y-91164518D01*
X124423975Y-91164518D01*
X124428747Y-91216919D01*
X124442172Y-91260322D01*
X124465615Y-91296878D01*
X124499569Y-91324009D01*
X124539226Y-91341061D01*
X124576505Y-91346418D01*
X124613639Y-91339199D01*
X124656250Y-91314911D01*
X124691751Y-91279931D01*
X124712182Y-91240783D01*
X124722930Y-91198928D01*
X124726165Y-91164518D01*
X124726165Y-90978466D01*
X124423975Y-90978466D01*
X124423975Y-91164518D01*
X124298068Y-91164518D01*
X124298068Y-90876311D01*
X124301291Y-90859726D01*
X124310708Y-90846941D01*
X124323764Y-90838353D01*
X124335865Y-90835767D01*
X125267590Y-90835767D01*
X125280545Y-90838638D01*
G37*
G36*
X125096034Y-91587014D02*
G01*
X125108161Y-91595484D01*
X125116387Y-91608377D01*
X125119335Y-91626259D01*
X125119335Y-92034816D01*
X125267590Y-92034816D01*
X125280545Y-92037687D01*
X125292076Y-92046662D01*
X125299915Y-92059688D01*
X125302578Y-92075361D01*
X125302578Y-92128545D01*
X125299858Y-92145421D01*
X125292076Y-92158586D01*
X125280540Y-92167610D01*
X125267590Y-92170493D01*
X125119335Y-92170493D01*
X125119335Y-92262817D01*
X125116382Y-92280742D01*
X125108161Y-92293592D01*
X125096030Y-92302110D01*
X125082943Y-92304827D01*
X125038185Y-92304827D01*
X125025109Y-92302108D01*
X125013028Y-92293592D01*
X125004760Y-92280737D01*
X125001793Y-92262817D01*
X125001793Y-92170493D01*
X124349848Y-92170493D01*
X124336708Y-92167657D01*
X124324019Y-92158586D01*
X124315151Y-92145308D01*
X124312112Y-92128545D01*
X124312112Y-92055760D01*
X124319395Y-92029830D01*
X124342887Y-92008194D01*
X124373697Y-91988654D01*
X124600258Y-91988654D01*
X124612897Y-92034816D01*
X125001793Y-92034816D01*
X125001793Y-91736840D01*
X124600258Y-91988654D01*
X124373697Y-91988654D01*
X124989214Y-91598293D01*
X125010271Y-91587893D01*
X125035376Y-91584310D01*
X125082943Y-91584310D01*
X125096034Y-91587014D01*
G37*
G36*
X170794891Y-83435501D02*
G01*
X170847434Y-83445929D01*
X170894533Y-83462705D01*
X170938439Y-83486316D01*
X170976745Y-83515470D01*
X171009993Y-83550424D01*
X171049903Y-83611799D01*
X171079241Y-83685833D01*
X171096294Y-83766842D01*
X171102280Y-83859728D01*
X171102280Y-84182867D01*
X171095686Y-84263283D01*
X171076799Y-84333315D01*
X171046271Y-84394802D01*
X171003813Y-84449116D01*
X170951443Y-84493404D01*
X170890792Y-84525340D01*
X170820240Y-84545222D01*
X170737564Y-84552217D01*
X170656578Y-84545239D01*
X170586894Y-84525323D01*
X170526426Y-84493174D01*
X170473666Y-84448377D01*
X170430665Y-84393595D01*
X170399905Y-84332262D01*
X170380973Y-84263106D01*
X170374393Y-84184412D01*
X170374393Y-84176755D01*
X170526728Y-84176755D01*
X170526728Y-84184412D01*
X170533729Y-84256030D01*
X170552923Y-84311424D01*
X170584165Y-84357716D01*
X170624455Y-84392226D01*
X170655965Y-84407996D01*
X170693245Y-84417922D01*
X170737564Y-84421443D01*
X170801436Y-84413737D01*
X170851479Y-84392226D01*
X170892329Y-84357526D01*
X170923818Y-84310618D01*
X170943019Y-84254776D01*
X170949945Y-84184412D01*
X170949945Y-84176755D01*
X170943027Y-84119996D01*
X170922273Y-84066736D01*
X170901003Y-84035012D01*
X170874749Y-84009295D01*
X170843016Y-83989024D01*
X170790399Y-83969263D01*
X170737564Y-83962829D01*
X170684847Y-83969283D01*
X170632918Y-83989024D01*
X170588038Y-84021396D01*
X170554467Y-84066736D01*
X170533662Y-84120000D01*
X170526728Y-84176755D01*
X170374393Y-84176755D01*
X170378286Y-84119039D01*
X170389476Y-84067803D01*
X170407506Y-84022070D01*
X170445962Y-83960194D01*
X170493681Y-83910506D01*
X170549657Y-83872429D01*
X170609880Y-83848242D01*
X170673037Y-83834876D01*
X170734474Y-83830510D01*
X170787950Y-83834586D01*
X170838262Y-83846626D01*
X170886070Y-83866646D01*
X170948059Y-83901162D01*
X170949945Y-83902653D01*
X170949945Y-83855093D01*
X170942730Y-83760914D01*
X170923456Y-83690657D01*
X170894533Y-83638883D01*
X170864162Y-83607091D01*
X170828649Y-83584575D01*
X170786978Y-83570687D01*
X170737564Y-83565806D01*
X170689582Y-83570334D01*
X170647124Y-83583452D01*
X170609074Y-83605031D01*
X170578084Y-83634606D01*
X170558006Y-83670699D01*
X170548288Y-83715050D01*
X170545792Y-83725114D01*
X170537541Y-83735133D01*
X170525311Y-83741875D01*
X170508257Y-83744335D01*
X170443642Y-83744335D01*
X170426474Y-83741563D01*
X170412880Y-83733588D01*
X170403473Y-83721740D01*
X170400521Y-83708938D01*
X170405303Y-83662011D01*
X170419704Y-83616635D01*
X170444381Y-83571985D01*
X170476689Y-83532141D01*
X170515693Y-83498118D01*
X170562124Y-83469623D01*
X170612680Y-83449145D01*
X170670220Y-83436354D01*
X170736019Y-83431875D01*
X170794891Y-83435501D01*
G37*
D15*
G36*
X137191260Y-77363051D02*
G01*
X137201046Y-77370566D01*
X137207450Y-77380970D01*
X137209399Y-77390692D01*
X137209399Y-78136072D01*
X137207214Y-78146478D01*
X137200460Y-78155660D01*
X137190528Y-78161913D01*
X137178087Y-78164062D01*
X137132170Y-78164062D01*
X137119504Y-78162071D01*
X137108674Y-78156198D01*
X137101104Y-78147212D01*
X137098611Y-78136072D01*
X137098611Y-77813769D01*
X136981081Y-77813769D01*
X136832240Y-78142813D01*
X136818091Y-78158854D01*
X136798681Y-78164062D01*
X136738206Y-78164062D01*
X136721990Y-78161239D01*
X136715296Y-78154537D01*
X136711339Y-78141690D01*
X136718080Y-78122639D01*
X136870293Y-77794718D01*
X136831535Y-77780310D01*
X136799218Y-77757789D01*
X136773042Y-77727063D01*
X136751102Y-77684516D01*
X136736482Y-77640125D01*
X136732637Y-77612318D01*
X136732637Y-77596637D01*
X136843426Y-77596637D01*
X136843426Y-77614516D01*
X136848051Y-77631272D01*
X136867508Y-77661557D01*
X136894430Y-77687962D01*
X136925687Y-77703518D01*
X136959027Y-77711731D01*
X136985575Y-77714167D01*
X137098611Y-77714167D01*
X137098611Y-77461180D01*
X136985575Y-77461180D01*
X136944682Y-77464851D01*
X136910593Y-77475200D01*
X136881849Y-77493277D01*
X136860767Y-77519408D01*
X136848102Y-77552352D01*
X136843426Y-77596637D01*
X136732637Y-77596637D01*
X136732637Y-77595514D01*
X136737307Y-77540204D01*
X136750472Y-77493904D01*
X136771443Y-77454928D01*
X136800341Y-77422053D01*
X136835753Y-77395893D01*
X136877065Y-77376748D01*
X136925402Y-77364710D01*
X136982205Y-77360454D01*
X137178087Y-77360454D01*
X137191260Y-77363051D01*
G37*
G36*
X136390435Y-77577789D02*
G01*
X136436859Y-77591606D01*
X136478741Y-77613512D01*
X136510718Y-77640308D01*
X136536634Y-77671651D01*
X136556050Y-77703518D01*
X136570091Y-77737170D01*
X136578422Y-77771222D01*
X136584040Y-77832771D01*
X136584040Y-77917866D01*
X136579407Y-77974276D01*
X136566113Y-78023623D01*
X136544210Y-78068185D01*
X136515212Y-78105346D01*
X136479154Y-78135273D01*
X136436322Y-78157321D01*
X136389269Y-78170719D01*
X136338918Y-78175249D01*
X136289438Y-78170494D01*
X136241563Y-78156198D01*
X136197647Y-78133112D01*
X136160963Y-78102513D01*
X136132050Y-78063910D01*
X136110600Y-78014097D01*
X136106106Y-77995046D01*
X136107796Y-77987638D01*
X136113384Y-77979952D01*
X136121693Y-77974579D01*
X136132972Y-77972674D01*
X136185582Y-77972674D01*
X136202533Y-77977209D01*
X136216894Y-77991725D01*
X136238053Y-78031693D01*
X136264799Y-78058465D01*
X136297749Y-78074500D01*
X136338918Y-78080140D01*
X136364980Y-78077139D01*
X136395436Y-78067293D01*
X136423308Y-78049398D01*
X136448583Y-78018591D01*
X136460283Y-77993635D01*
X136468065Y-77960751D01*
X136470956Y-77917866D01*
X136448583Y-77917866D01*
X136448583Y-77915618D01*
X136131849Y-77915618D01*
X136117509Y-77913256D01*
X136107229Y-77906679D01*
X136100453Y-77896978D01*
X136098290Y-77886505D01*
X136098290Y-77832771D01*
X136210202Y-77832771D01*
X136254947Y-77832771D01*
X136254947Y-77828326D01*
X136448583Y-77828326D01*
X136448583Y-77811522D01*
X136461011Y-77796067D01*
X136465248Y-77778895D01*
X136461479Y-77758375D01*
X136447787Y-77728787D01*
X136432365Y-77707475D01*
X136413267Y-77690848D01*
X136390404Y-77678898D01*
X136365576Y-77671714D01*
X136341165Y-77669373D01*
X136304829Y-77673926D01*
X136273921Y-77687089D01*
X136247131Y-77709136D01*
X136227815Y-77737942D01*
X136215013Y-77777948D01*
X136210202Y-77832771D01*
X136098290Y-77832771D01*
X136098290Y-77831648D01*
X136102899Y-77775374D01*
X136116103Y-77726368D01*
X136137442Y-77683343D01*
X136167117Y-77645339D01*
X136203806Y-77613753D01*
X136244441Y-77591442D01*
X136289839Y-77577842D01*
X136341165Y-77573141D01*
X136390435Y-77577789D01*
G37*
G36*
X135762637Y-77576138D02*
G01*
X135797589Y-77584675D01*
X135828011Y-77598347D01*
X135867070Y-77622731D01*
X135868897Y-77624396D01*
X135868897Y-77614516D01*
X135871166Y-77604004D01*
X135878422Y-77593853D01*
X135889045Y-77586758D01*
X135902456Y-77584327D01*
X135949448Y-77584327D01*
X135963698Y-77586943D01*
X135974117Y-77594390D01*
X135980988Y-77604835D01*
X135983056Y-77614516D01*
X135983056Y-78358822D01*
X135980891Y-78369287D01*
X135974117Y-78378947D01*
X135963792Y-78385563D01*
X135949448Y-78387935D01*
X135902456Y-78387935D01*
X135889872Y-78385691D01*
X135878960Y-78378947D01*
X135871292Y-78369201D01*
X135868897Y-78358822D01*
X135868897Y-78114708D01*
X135833042Y-78148382D01*
X135826350Y-78151752D01*
X135795677Y-78164551D01*
X135761214Y-78172486D01*
X135722254Y-78175249D01*
X135674334Y-78170695D01*
X135630516Y-78157321D01*
X135591060Y-78135428D01*
X135558318Y-78105884D01*
X135532341Y-78069274D01*
X135512400Y-78024160D01*
X135500416Y-77974155D01*
X135496182Y-77915618D01*
X135496182Y-77832771D01*
X135496582Y-77827203D01*
X135610341Y-77827203D01*
X135610341Y-77922311D01*
X135614713Y-77970371D01*
X135626759Y-78008270D01*
X135645610Y-78038180D01*
X135671547Y-78061426D01*
X135702195Y-78075310D01*
X135739057Y-78080140D01*
X135775911Y-78075326D01*
X135806769Y-78061451D01*
X135833091Y-78038180D01*
X135852248Y-78008228D01*
X135864467Y-77970329D01*
X135868897Y-77922311D01*
X135868897Y-77820461D01*
X135864398Y-77774049D01*
X135852000Y-77737679D01*
X135832505Y-77709136D01*
X135806045Y-77687105D01*
X135775343Y-77673936D01*
X135739057Y-77669373D01*
X135702198Y-77674208D01*
X135671551Y-77688106D01*
X135645610Y-77711383D01*
X135626761Y-77741262D01*
X135614714Y-77779143D01*
X135610341Y-77827203D01*
X135496582Y-77827203D01*
X135500479Y-77772977D01*
X135512587Y-77722415D01*
X135531737Y-77679530D01*
X135557732Y-77643092D01*
X135590806Y-77612700D01*
X135628560Y-77591090D01*
X135671925Y-77577788D01*
X135722254Y-77573141D01*
X135762637Y-77576138D01*
G37*
G36*
X135242694Y-77578389D02*
G01*
X135292197Y-77592664D01*
X135330238Y-77614568D01*
X135359068Y-77643885D01*
X135379835Y-77681609D01*
X135392428Y-77729799D01*
X135393551Y-77737663D01*
X135390178Y-77752613D01*
X135380815Y-77761220D01*
X135363314Y-77764530D01*
X135315198Y-77764530D01*
X135302016Y-77762412D01*
X135293363Y-77756714D01*
X135284961Y-77740985D01*
X135274828Y-77712733D01*
X135262065Y-77694150D01*
X135246908Y-77682806D01*
X135217820Y-77673017D01*
X135178618Y-77669373D01*
X135138574Y-77673140D01*
X135110329Y-77683054D01*
X135090788Y-77697949D01*
X135077414Y-77718821D01*
X135068099Y-77750792D01*
X135064459Y-77798089D01*
X135064459Y-77826079D01*
X135199916Y-77826079D01*
X135256339Y-77829509D01*
X135301564Y-77838909D01*
X135337595Y-77853256D01*
X135366099Y-77871997D01*
X135390014Y-77896817D01*
X135407124Y-77925903D01*
X135417748Y-77960103D01*
X135421493Y-78000664D01*
X135417808Y-78041326D01*
X135407370Y-78075567D01*
X135390597Y-78104631D01*
X135367222Y-78129380D01*
X135328699Y-78154235D01*
X135282206Y-78169738D01*
X135225659Y-78175249D01*
X135204361Y-78175249D01*
X135168407Y-78172535D01*
X135134621Y-78164523D01*
X135102561Y-78151215D01*
X135064459Y-78128244D01*
X135064459Y-78136072D01*
X135062162Y-78146436D01*
X135054982Y-78155660D01*
X135044409Y-78161888D01*
X135030900Y-78164062D01*
X134988353Y-78164062D01*
X134974798Y-78161907D01*
X134963782Y-78155660D01*
X134956096Y-78146386D01*
X134953670Y-78136072D01*
X134953670Y-77941362D01*
X135064459Y-77941362D01*
X135067933Y-77980317D01*
X135077892Y-78014097D01*
X135095081Y-78043195D01*
X135119316Y-78065046D01*
X135150285Y-78078513D01*
X135193175Y-78083511D01*
X135215596Y-78083511D01*
X135244532Y-78080596D01*
X135268743Y-78072325D01*
X135288583Y-78058496D01*
X135301228Y-78040427D01*
X135308440Y-78019685D01*
X135310704Y-78000664D01*
X135307484Y-77971204D01*
X135298874Y-77950113D01*
X135285547Y-77935207D01*
X135267449Y-77925367D01*
X135239405Y-77918373D01*
X135197669Y-77915618D01*
X135064459Y-77915618D01*
X135064459Y-77941362D01*
X134953670Y-77941362D01*
X134953670Y-77800336D01*
X134956959Y-77745405D01*
X134965898Y-77702103D01*
X134979413Y-77668249D01*
X134999448Y-77638263D01*
X135024799Y-77614404D01*
X135056106Y-77596100D01*
X135090779Y-77583764D01*
X135131278Y-77575922D01*
X135178618Y-77573141D01*
X135242694Y-77578389D01*
G37*
G36*
X134755785Y-77492541D02*
G01*
X134785582Y-77487439D01*
X134807857Y-77472953D01*
X134822535Y-77451296D01*
X134827445Y-77425374D01*
X134822534Y-77399461D01*
X134807857Y-77377845D01*
X134785582Y-77363358D01*
X134755785Y-77358256D01*
X134726029Y-77363356D01*
X134703761Y-77377845D01*
X134689084Y-77399461D01*
X134684173Y-77425374D01*
X134689083Y-77451296D01*
X134703761Y-77472953D01*
X134726029Y-77487441D01*
X134755785Y-77492541D01*
G37*
G36*
X134732288Y-78164062D02*
G01*
X134779330Y-78164062D01*
X134792796Y-78161890D01*
X134803363Y-78155660D01*
X134810582Y-78146432D01*
X134812889Y-78136072D01*
X134812889Y-77614516D01*
X134810820Y-77604835D01*
X134803949Y-77594390D01*
X134793537Y-77586941D01*
X134779330Y-77584327D01*
X134732288Y-77584327D01*
X134718877Y-77586758D01*
X134708255Y-77593853D01*
X134700999Y-77604004D01*
X134698729Y-77614516D01*
X134698729Y-78136072D01*
X134701036Y-78146432D01*
X134708255Y-78155660D01*
X134718787Y-78161886D01*
X134732288Y-78164062D01*
G37*
G36*
X134471730Y-78164062D02*
G01*
X134517599Y-78164062D01*
X134531108Y-78161888D01*
X134541681Y-78155660D01*
X134548900Y-78146432D01*
X134551207Y-78136072D01*
X134551207Y-77614516D01*
X134549138Y-77604835D01*
X134542267Y-77594390D01*
X134531849Y-77586943D01*
X134517599Y-77584327D01*
X134475101Y-77584327D01*
X134460859Y-77586945D01*
X134450481Y-77594390D01*
X134443571Y-77604839D01*
X134441493Y-77614516D01*
X134441493Y-77661557D01*
X134454926Y-77658187D01*
X134426399Y-77630196D01*
X134397116Y-77609048D01*
X134364312Y-77594976D01*
X134329816Y-77586893D01*
X134298220Y-77584327D01*
X134282588Y-77584327D01*
X134268199Y-77586804D01*
X134257383Y-77593853D01*
X134250126Y-77604004D01*
X134247857Y-77614516D01*
X134247857Y-77659310D01*
X134250260Y-77669694D01*
X134257969Y-77679484D01*
X134269032Y-77686144D01*
X134282588Y-77688424D01*
X134299344Y-77688424D01*
X134340435Y-77693963D01*
X134373251Y-77709673D01*
X134399710Y-77735019D01*
X134420781Y-77771222D01*
X134433612Y-77813404D01*
X134438122Y-77863009D01*
X134438122Y-78136072D01*
X134440429Y-78146432D01*
X134447648Y-78155660D01*
X134458221Y-78161888D01*
X134471730Y-78164062D01*
G37*
G36*
X133863059Y-77363033D02*
G01*
X133873286Y-77370566D01*
X133880157Y-77381011D01*
X133882226Y-77390692D01*
X133882226Y-78136072D01*
X133879929Y-78146436D01*
X133872749Y-78155660D01*
X133862328Y-78161932D01*
X133849790Y-78164062D01*
X133581172Y-78164062D01*
X133524023Y-78161135D01*
X133475169Y-78152903D01*
X133433454Y-78140029D01*
X133394711Y-78120790D01*
X133363123Y-78096602D01*
X133337759Y-78067293D01*
X133319259Y-78033306D01*
X133307700Y-77993277D01*
X133303614Y-77945807D01*
X133303614Y-77931299D01*
X133303847Y-77929052D01*
X133416650Y-77929052D01*
X133416650Y-77942485D01*
X133421065Y-77979640D01*
X133433340Y-78008547D01*
X133453175Y-78031192D01*
X133481806Y-78048484D01*
X133521788Y-78060082D01*
X133576678Y-78064460D01*
X133768066Y-78064460D01*
X133768066Y-77799212D01*
X133576678Y-77799212D01*
X133530410Y-77802771D01*
X133492756Y-77812646D01*
X133460599Y-77830206D01*
X133436824Y-77855193D01*
X133422002Y-77887080D01*
X133416650Y-77929052D01*
X133303847Y-77929052D01*
X133308455Y-77884604D01*
X133322665Y-77842297D01*
X133343972Y-77803395D01*
X133369120Y-77769561D01*
X133381586Y-77747700D01*
X133382156Y-77726535D01*
X133370781Y-77703518D01*
X133357913Y-77679103D01*
X133349063Y-77641724D01*
X133346113Y-77586575D01*
X133346113Y-77572018D01*
X133460321Y-77572018D01*
X133460321Y-77588773D01*
X133464288Y-77622720D01*
X133475294Y-77649052D01*
X133493011Y-77669597D01*
X133518475Y-77685224D01*
X133553906Y-77695673D01*
X133602421Y-77699610D01*
X133768066Y-77699610D01*
X133768066Y-77461180D01*
X133610286Y-77461180D01*
X133558531Y-77465213D01*
X133520962Y-77475874D01*
X133494190Y-77491703D01*
X133475747Y-77512321D01*
X133464392Y-77538502D01*
X133460321Y-77572018D01*
X133346113Y-77572018D01*
X133346113Y-77568647D01*
X133349543Y-77526959D01*
X133359363Y-77490728D01*
X133375226Y-77458982D01*
X133397228Y-77431143D01*
X133425806Y-77407116D01*
X133461981Y-77386784D01*
X133501299Y-77372792D01*
X133549067Y-77363725D01*
X133606915Y-77360454D01*
X133849790Y-77360454D01*
X133863059Y-77363033D01*
G37*
G36*
X133020468Y-77577814D02*
G01*
X133067041Y-77591606D01*
X133109259Y-77614218D01*
X133144808Y-77644753D01*
X133173406Y-77682317D01*
X133195170Y-77727014D01*
X133208465Y-77776361D01*
X133213098Y-77832771D01*
X133213098Y-77917866D01*
X133208465Y-77974276D01*
X133195170Y-78023623D01*
X133173380Y-78068225D01*
X133144808Y-78105346D01*
X133109281Y-78135283D01*
X133067041Y-78157321D01*
X133020492Y-78170707D01*
X132970223Y-78175249D01*
X132919954Y-78170707D01*
X132873405Y-78157321D01*
X132831132Y-78135278D01*
X132795638Y-78105346D01*
X132767038Y-78068219D01*
X132745275Y-78023623D01*
X132731980Y-77974276D01*
X132727348Y-77917866D01*
X132727348Y-77832771D01*
X132727723Y-77827203D01*
X132841507Y-77827203D01*
X132841507Y-77922311D01*
X132846046Y-77972622D01*
X132858354Y-78010884D01*
X132877313Y-78039840D01*
X132903456Y-78062170D01*
X132933964Y-78075512D01*
X132970223Y-78080140D01*
X133006470Y-78075526D01*
X133037171Y-78062193D01*
X133063670Y-78039840D01*
X133082934Y-78010841D01*
X133095416Y-77972576D01*
X133100013Y-77922311D01*
X133100013Y-77827203D01*
X133095416Y-77776937D01*
X133082934Y-77738673D01*
X133063670Y-77709673D01*
X133037171Y-77687320D01*
X133006470Y-77673987D01*
X132970223Y-77669373D01*
X132934690Y-77673958D01*
X132904344Y-77687263D01*
X132877899Y-77709673D01*
X132858607Y-77738677D01*
X132846110Y-77776941D01*
X132841507Y-77827203D01*
X132727723Y-77827203D01*
X132730221Y-77790089D01*
X132739120Y-77744942D01*
X132754634Y-77702245D01*
X132776587Y-77667175D01*
X132803684Y-77637139D01*
X132831444Y-77613979D01*
X132862117Y-77596034D01*
X132896901Y-77583204D01*
X132933525Y-77575643D01*
X132970223Y-77573141D01*
X133020468Y-77577814D01*
G37*
G36*
X132473566Y-77578389D02*
G01*
X132523070Y-77592664D01*
X132561111Y-77614568D01*
X132589940Y-77643885D01*
X132610707Y-77681609D01*
X132623300Y-77729799D01*
X132624424Y-77737663D01*
X132621051Y-77752613D01*
X132611687Y-77761220D01*
X132594187Y-77764530D01*
X132546071Y-77764530D01*
X132532888Y-77762412D01*
X132524235Y-77756714D01*
X132515833Y-77740985D01*
X132505700Y-77712733D01*
X132492937Y-77694150D01*
X132477780Y-77682806D01*
X132448692Y-77673017D01*
X132409490Y-77669373D01*
X132369446Y-77673140D01*
X132341201Y-77683054D01*
X132321660Y-77697949D01*
X132308287Y-77718821D01*
X132298971Y-77750792D01*
X132295331Y-77798089D01*
X132295331Y-77826079D01*
X132430788Y-77826079D01*
X132487211Y-77829509D01*
X132532436Y-77838909D01*
X132568467Y-77853256D01*
X132596971Y-77871997D01*
X132620887Y-77896817D01*
X132637996Y-77925903D01*
X132648620Y-77960103D01*
X132652365Y-78000664D01*
X132648681Y-78041326D01*
X132638242Y-78075567D01*
X132621469Y-78104631D01*
X132598094Y-78129380D01*
X132559572Y-78154235D01*
X132513078Y-78169738D01*
X132456531Y-78175249D01*
X132435233Y-78175249D01*
X132399279Y-78172535D01*
X132365493Y-78164523D01*
X132333433Y-78151215D01*
X132295331Y-78128244D01*
X132295331Y-78136072D01*
X132293034Y-78146436D01*
X132285854Y-78155660D01*
X132275281Y-78161888D01*
X132261772Y-78164062D01*
X132219225Y-78164062D01*
X132205670Y-78161907D01*
X132194654Y-78155660D01*
X132186968Y-78146386D01*
X132184542Y-78136072D01*
X132184542Y-77941362D01*
X132295331Y-77941362D01*
X132298805Y-77980317D01*
X132308764Y-78014097D01*
X132325953Y-78043195D01*
X132350188Y-78065046D01*
X132381157Y-78078513D01*
X132424047Y-78083511D01*
X132446468Y-78083511D01*
X132475404Y-78080596D01*
X132499616Y-78072325D01*
X132519456Y-78058496D01*
X132532100Y-78040427D01*
X132539312Y-78019685D01*
X132541577Y-78000664D01*
X132538356Y-77971204D01*
X132529746Y-77950113D01*
X132516420Y-77935207D01*
X132498321Y-77925367D01*
X132470278Y-77918373D01*
X132428541Y-77915618D01*
X132295331Y-77915618D01*
X132295331Y-77941362D01*
X132184542Y-77941362D01*
X132184542Y-77800336D01*
X132187831Y-77745405D01*
X132196770Y-77702103D01*
X132210286Y-77668249D01*
X132230320Y-77638263D01*
X132255672Y-77614404D01*
X132286978Y-77596100D01*
X132321652Y-77583764D01*
X132362151Y-77575922D01*
X132409490Y-77573141D01*
X132473566Y-77578389D01*
G37*
G36*
X131969902Y-78164062D02*
G01*
X132015771Y-78164062D01*
X132029280Y-78161888D01*
X132039853Y-78155660D01*
X132047072Y-78146432D01*
X132049378Y-78136072D01*
X132049378Y-77614516D01*
X132047310Y-77604835D01*
X132040439Y-77594390D01*
X132030021Y-77586943D01*
X132015771Y-77584327D01*
X131973272Y-77584327D01*
X131959031Y-77586945D01*
X131948653Y-77594390D01*
X131941743Y-77604839D01*
X131939665Y-77614516D01*
X131939665Y-77661557D01*
X131953098Y-77658187D01*
X131924570Y-77630196D01*
X131895287Y-77609048D01*
X131862484Y-77594976D01*
X131827988Y-77586893D01*
X131796392Y-77584327D01*
X131780760Y-77584327D01*
X131766371Y-77586804D01*
X131755554Y-77593853D01*
X131748298Y-77604004D01*
X131746029Y-77614516D01*
X131746029Y-77659310D01*
X131748432Y-77669694D01*
X131756140Y-77679484D01*
X131767204Y-77686144D01*
X131780760Y-77688424D01*
X131797515Y-77688424D01*
X131838606Y-77693963D01*
X131871423Y-77709673D01*
X131897882Y-77735019D01*
X131918953Y-77771222D01*
X131931784Y-77813404D01*
X131936294Y-77863009D01*
X131936294Y-78136072D01*
X131938601Y-78146432D01*
X131945819Y-78155660D01*
X131956393Y-78161888D01*
X131969902Y-78164062D01*
G37*
G36*
X131292412Y-77363031D02*
G01*
X131302679Y-77370566D01*
X131309550Y-77381011D01*
X131311618Y-77390692D01*
X131311618Y-77619010D01*
X131355240Y-77596637D01*
X131383778Y-77584017D01*
X131417731Y-77575999D01*
X131458213Y-77573141D01*
X131508541Y-77577787D01*
X131551915Y-77591089D01*
X131589686Y-77612699D01*
X131622784Y-77643092D01*
X131648779Y-77679530D01*
X131667928Y-77722415D01*
X131680036Y-77772977D01*
X131684333Y-77832771D01*
X131684333Y-77915618D01*
X131680099Y-77974155D01*
X131668115Y-78024160D01*
X131648147Y-78069279D01*
X131622198Y-78105884D01*
X131589455Y-78135428D01*
X131550000Y-78157321D01*
X131506139Y-78170696D01*
X131458213Y-78175249D01*
X131419250Y-78172495D01*
X131384597Y-78164567D01*
X131353579Y-78151752D01*
X131313864Y-78128164D01*
X131311618Y-78125934D01*
X131311618Y-78136072D01*
X131309312Y-78146432D01*
X131302093Y-78155660D01*
X131291672Y-78161932D01*
X131279134Y-78164062D01*
X131232142Y-78164062D01*
X131218545Y-78161905D01*
X131207522Y-78155660D01*
X131199875Y-78146390D01*
X131197459Y-78136072D01*
X131197459Y-77820461D01*
X131311618Y-77820461D01*
X131311618Y-77922311D01*
X131316112Y-77970283D01*
X131328518Y-78008183D01*
X131348011Y-78038180D01*
X131374630Y-78061465D01*
X131405678Y-78075335D01*
X131442581Y-78080140D01*
X131479414Y-78075313D01*
X131510063Y-78061431D01*
X131536029Y-78038180D01*
X131554852Y-78008273D01*
X131566882Y-77970375D01*
X131571249Y-77922311D01*
X131571249Y-77827203D01*
X131566881Y-77779139D01*
X131554850Y-77741259D01*
X131536029Y-77711383D01*
X131510032Y-77688164D01*
X131479034Y-77674237D01*
X131441458Y-77669373D01*
X131405142Y-77673939D01*
X131374442Y-77687109D01*
X131348011Y-77709136D01*
X131328516Y-77737679D01*
X131316117Y-77774049D01*
X131311618Y-77820461D01*
X131197459Y-77820461D01*
X131197459Y-77390692D01*
X131199727Y-77380171D01*
X131206985Y-77369980D01*
X131217761Y-77362932D01*
X131232142Y-77360454D01*
X131279134Y-77360454D01*
X131292412Y-77363031D01*
G37*
G36*
X130565603Y-78164062D02*
G01*
X130621535Y-78164062D01*
X130641452Y-78159125D01*
X130652896Y-78145060D01*
X130856594Y-77626826D01*
X130862163Y-77608947D01*
X130860364Y-77599602D01*
X130854933Y-77591606D01*
X130846476Y-77586276D01*
X130834221Y-77584327D01*
X130779364Y-77584327D01*
X130759125Y-77589420D01*
X130745806Y-77604453D01*
X130592470Y-78018591D01*
X130441381Y-77604453D01*
X130435009Y-77593387D01*
X130424998Y-77586767D01*
X130410020Y-77584327D01*
X130355163Y-77584327D01*
X130338408Y-77588822D01*
X130331028Y-77595424D01*
X130328297Y-77607824D01*
X130333914Y-77629073D01*
X130531995Y-78145060D01*
X130545249Y-78159195D01*
X130565603Y-78164062D01*
G37*
G36*
X130027096Y-78151752D02*
G01*
X130027096Y-77560831D01*
X130074689Y-77550015D01*
X130099185Y-77535859D01*
X130109374Y-77519518D01*
X130108820Y-77499233D01*
X130102238Y-77483604D01*
X130064612Y-77429868D01*
X130032261Y-77393499D01*
X130007916Y-77376393D01*
X129989043Y-77371690D01*
X129949867Y-77371690D01*
X129935626Y-77374307D01*
X129925247Y-77381752D01*
X129918376Y-77392197D01*
X129916308Y-77401878D01*
X129916308Y-78152876D01*
X129921631Y-78162869D01*
X129944298Y-78173588D01*
X129972152Y-78177642D01*
X129999692Y-78173002D01*
X130021853Y-78161877D01*
X130027096Y-78151752D01*
G37*
G36*
X129480432Y-78170803D02*
G01*
X129514268Y-78165326D01*
X129538611Y-78150092D01*
X129554471Y-78126904D01*
X129559860Y-78098019D01*
X129554442Y-78068116D01*
X129538611Y-78044334D01*
X129523225Y-78032785D01*
X129504182Y-78025603D01*
X129480432Y-78023036D01*
X129447488Y-78028588D01*
X129422791Y-78044334D01*
X129406503Y-78068163D01*
X129400956Y-78098019D01*
X129406518Y-78125950D01*
X129423328Y-78149554D01*
X129448356Y-78165328D01*
X129480432Y-78170803D01*
G37*
G36*
X129053511Y-77364307D02*
G01*
X129100461Y-77375208D01*
X129140733Y-77392509D01*
X129175364Y-77416033D01*
X129205073Y-77446086D01*
X129234514Y-77490375D01*
X129256307Y-77542452D01*
X129270120Y-77603768D01*
X129275024Y-77676114D01*
X129275024Y-77860762D01*
X129270827Y-77928477D01*
X129258806Y-77988354D01*
X129237611Y-78043126D01*
X129207857Y-78088542D01*
X129182904Y-78114200D01*
X129153958Y-78135591D01*
X129120565Y-78152876D01*
X129084834Y-78165025D01*
X129044776Y-78172606D01*
X128999713Y-78175249D01*
X128954618Y-78172605D01*
X128914545Y-78165023D01*
X128878813Y-78152876D01*
X128845430Y-78135574D01*
X128816295Y-78114013D01*
X128790983Y-78088005D01*
X128760565Y-78042277D01*
X128738911Y-77988403D01*
X128726490Y-77929310D01*
X128722107Y-77860762D01*
X128722107Y-77676114D01*
X128722184Y-77674990D01*
X128838513Y-77674990D01*
X128838513Y-77861885D01*
X128843793Y-77932712D01*
X128857844Y-77985227D01*
X128878813Y-78023623D01*
X128900954Y-78046937D01*
X128927768Y-78063678D01*
X128960207Y-78074160D01*
X128999713Y-78077893D01*
X129041938Y-78073537D01*
X129076047Y-78061342D01*
X129103825Y-78041780D01*
X129126335Y-78014178D01*
X129143766Y-77976818D01*
X129155408Y-77927130D01*
X129159741Y-77861885D01*
X129159741Y-77674990D01*
X129154399Y-77604209D01*
X129140171Y-77551693D01*
X129118904Y-77513253D01*
X129096486Y-77489861D01*
X129069634Y-77473122D01*
X129037454Y-77462685D01*
X128998590Y-77458982D01*
X128959694Y-77462695D01*
X128927613Y-77473145D01*
X128900957Y-77489881D01*
X128878813Y-77513253D01*
X128857844Y-77551648D01*
X128843793Y-77604163D01*
X128838513Y-77674990D01*
X128722184Y-77674990D01*
X128727047Y-77603804D01*
X128740965Y-77542502D01*
X128762937Y-77490412D01*
X128792644Y-77446086D01*
X128822574Y-77415972D01*
X128857293Y-77392435D01*
X128897493Y-77375155D01*
X128944176Y-77364288D01*
X128998590Y-77360454D01*
X129053511Y-77364307D01*
G37*
D14*
G36*
X122707644Y-81715907D02*
G01*
X122655865Y-81715907D01*
X122643764Y-81718492D01*
X122630708Y-81727081D01*
X122621349Y-81740101D01*
X122618068Y-81757855D01*
X122618068Y-82395818D01*
X122621163Y-82413805D01*
X122629975Y-82427325D01*
X122642714Y-82436397D01*
X122655865Y-82439232D01*
X122707644Y-82439232D01*
X122720613Y-82436226D01*
X122732801Y-82426592D01*
X122741126Y-82412763D01*
X122743975Y-82395818D01*
X122743975Y-82148217D01*
X123587590Y-82148217D01*
X123600540Y-82145333D01*
X123612076Y-82136310D01*
X123619862Y-82123101D01*
X123622578Y-82106268D01*
X123622578Y-82047466D01*
X123619758Y-82029595D01*
X123612076Y-82017363D01*
X123600654Y-82009499D01*
X123587590Y-82006922D01*
X122743975Y-82006922D01*
X122743975Y-81757855D01*
X122741027Y-81739973D01*
X122732801Y-81727081D01*
X122720726Y-81718612D01*
X122707644Y-81715907D01*
G37*
G36*
X123600545Y-82668638D02*
G01*
X123612076Y-82677613D01*
X123619915Y-82690639D01*
X123622578Y-82706311D01*
X123622578Y-82765052D01*
X123619882Y-82782048D01*
X123612076Y-82795826D01*
X123600482Y-82805434D01*
X123587590Y-82808466D01*
X123170729Y-82808466D01*
X123170729Y-82998731D01*
X123162110Y-83075740D01*
X123143844Y-83137216D01*
X123117225Y-83186109D01*
X123082557Y-83224656D01*
X123024705Y-83267920D01*
X122972746Y-83293612D01*
X122925204Y-83305073D01*
X122852666Y-83306170D01*
X122790870Y-83293166D01*
X122754115Y-83275272D01*
X122715200Y-83244446D01*
X122673389Y-83197362D01*
X122649064Y-83158455D01*
X122631458Y-83113215D01*
X122620862Y-83060457D01*
X122618068Y-82998731D01*
X122618068Y-82994518D01*
X122743975Y-82994518D01*
X122748747Y-83046919D01*
X122762172Y-83090322D01*
X122785615Y-83126878D01*
X122819569Y-83154009D01*
X122859226Y-83171061D01*
X122896505Y-83176418D01*
X122933639Y-83169199D01*
X122976250Y-83144911D01*
X123011751Y-83109931D01*
X123032182Y-83070783D01*
X123042930Y-83028928D01*
X123046165Y-82994518D01*
X123046165Y-82808466D01*
X122743975Y-82808466D01*
X122743975Y-82994518D01*
X122618068Y-82994518D01*
X122618068Y-82706311D01*
X122621291Y-82689726D01*
X122630708Y-82676941D01*
X122643764Y-82668353D01*
X122655865Y-82665767D01*
X123587590Y-82665767D01*
X123600545Y-82668638D01*
G37*
G36*
X123498075Y-84116631D02*
G01*
X123500971Y-84134896D01*
X123509310Y-84149481D01*
X123521550Y-84159654D01*
X123534467Y-84162793D01*
X123587590Y-84162793D01*
X123600487Y-84159773D01*
X123612076Y-84150214D01*
X123619781Y-84136066D01*
X123622578Y-84116631D01*
X123622578Y-83543026D01*
X123619598Y-83523758D01*
X123611404Y-83510115D01*
X123599466Y-83501036D01*
X123587590Y-83498269D01*
X123535872Y-83498269D01*
X123453699Y-83503113D01*
X123391082Y-83518904D01*
X123343764Y-83543608D01*
X123308543Y-83576610D01*
X123101486Y-83817250D01*
X123021377Y-83901040D01*
X122962471Y-83951722D01*
X122919936Y-83978619D01*
X122889483Y-83989319D01*
X122844963Y-83991219D01*
X122808113Y-83978761D01*
X122776215Y-83951523D01*
X122752028Y-83915110D01*
X122737678Y-83875599D01*
X122732801Y-83831905D01*
X122736783Y-83787724D01*
X122748446Y-83747432D01*
X122767789Y-83710211D01*
X122794693Y-83680165D01*
X122827607Y-83662505D01*
X122868539Y-83656355D01*
X122892682Y-83649006D01*
X122909724Y-83634562D01*
X122921044Y-83611776D01*
X122925875Y-83577281D01*
X122922129Y-83543204D01*
X122911258Y-83522046D01*
X122894110Y-83509717D01*
X122868539Y-83505230D01*
X122828436Y-83509224D01*
X122786258Y-83521673D01*
X122741228Y-83543698D01*
X122701346Y-83573122D01*
X122669124Y-83610095D01*
X122644019Y-83655622D01*
X122619883Y-83730759D01*
X122610436Y-83809495D01*
X122612941Y-83887030D01*
X122623686Y-83948042D01*
X122644902Y-84002894D01*
X122677541Y-84050868D01*
X122719907Y-84090808D01*
X122770598Y-84121516D01*
X122807960Y-84133585D01*
X122858010Y-84138318D01*
X122924471Y-84133422D01*
X122970340Y-84121486D01*
X123018997Y-84097154D01*
X123071513Y-84057943D01*
X123128780Y-84000493D01*
X123323197Y-83777377D01*
X123387908Y-83709590D01*
X123429094Y-83678964D01*
X123454722Y-83670338D01*
X123482688Y-83670338D01*
X123498075Y-83670338D01*
X123498075Y-84116631D01*
G37*
G36*
X168862066Y-78609883D02*
G01*
X168841974Y-78613068D01*
X168825930Y-78622241D01*
X168814740Y-78635705D01*
X168811288Y-78649914D01*
X168811288Y-78708349D01*
X168814609Y-78722536D01*
X168825124Y-78735283D01*
X168840687Y-78743759D01*
X168862066Y-78746836D01*
X169493031Y-78746836D01*
X169514226Y-78743558D01*
X169529234Y-78734544D01*
X169539220Y-78721412D01*
X169542264Y-78708349D01*
X169542264Y-78651459D01*
X169536935Y-78561069D01*
X169519565Y-78492190D01*
X169492391Y-78440140D01*
X169456089Y-78401397D01*
X169191385Y-78173635D01*
X169099216Y-78085515D01*
X169043466Y-78020719D01*
X169013879Y-77973929D01*
X169002109Y-77940431D01*
X169000019Y-77891459D01*
X169013723Y-77850925D01*
X169043685Y-77815837D01*
X169083738Y-77789231D01*
X169127201Y-77773445D01*
X169175265Y-77768081D01*
X169223863Y-77772462D01*
X169268184Y-77785290D01*
X169309128Y-77806568D01*
X169342179Y-77836163D01*
X169361604Y-77872368D01*
X169368369Y-77917393D01*
X169376453Y-77943951D01*
X169392342Y-77962697D01*
X169417406Y-77975149D01*
X169455350Y-77980463D01*
X169492835Y-77976342D01*
X169516109Y-77964384D01*
X169529672Y-77945522D01*
X169534607Y-77917393D01*
X169530213Y-77873280D01*
X169516520Y-77826884D01*
X169492292Y-77777351D01*
X169459925Y-77733481D01*
X169419256Y-77698037D01*
X169369175Y-77670421D01*
X169286525Y-77643871D01*
X169199915Y-77633479D01*
X169114627Y-77636235D01*
X169047513Y-77648054D01*
X168987176Y-77671392D01*
X168934405Y-77707296D01*
X168890471Y-77753898D01*
X168856693Y-77809658D01*
X168843416Y-77850756D01*
X168838209Y-77905811D01*
X168843595Y-77978918D01*
X168856725Y-78029374D01*
X168883490Y-78082897D01*
X168926623Y-78140664D01*
X168989817Y-78203658D01*
X169235245Y-78417517D01*
X169309810Y-78488699D01*
X169343500Y-78534003D01*
X169352988Y-78562194D01*
X169352988Y-78592957D01*
X169352988Y-78609883D01*
X168862066Y-78609883D01*
G37*
G36*
X168358617Y-77645501D02*
G01*
X168411160Y-77655929D01*
X168458259Y-77672705D01*
X168502165Y-77696316D01*
X168540471Y-77725470D01*
X168573719Y-77760424D01*
X168613629Y-77821799D01*
X168642968Y-77895833D01*
X168660020Y-77976842D01*
X168666006Y-78069728D01*
X168666006Y-78392867D01*
X168659412Y-78473283D01*
X168640525Y-78543315D01*
X168609998Y-78604802D01*
X168567540Y-78659116D01*
X168515170Y-78703404D01*
X168454519Y-78735340D01*
X168383966Y-78755222D01*
X168301290Y-78762217D01*
X168220305Y-78755239D01*
X168150621Y-78735323D01*
X168090153Y-78703174D01*
X168037392Y-78658377D01*
X167994391Y-78603595D01*
X167963632Y-78542262D01*
X167944700Y-78473106D01*
X167938120Y-78394412D01*
X167938120Y-78386755D01*
X168090454Y-78386755D01*
X168090454Y-78394412D01*
X168097455Y-78466030D01*
X168116649Y-78521424D01*
X168147892Y-78567716D01*
X168188182Y-78602226D01*
X168219691Y-78617996D01*
X168256971Y-78627922D01*
X168301290Y-78631443D01*
X168365163Y-78623737D01*
X168415205Y-78602226D01*
X168456056Y-78567526D01*
X168487544Y-78520618D01*
X168506746Y-78464776D01*
X168513672Y-78394412D01*
X168513672Y-78386755D01*
X168506753Y-78329996D01*
X168485999Y-78276736D01*
X168464729Y-78245012D01*
X168438476Y-78219295D01*
X168406742Y-78199024D01*
X168354125Y-78179263D01*
X168301290Y-78172829D01*
X168248573Y-78179283D01*
X168196645Y-78199024D01*
X168151764Y-78231396D01*
X168118194Y-78276736D01*
X168097389Y-78330000D01*
X168090454Y-78386755D01*
X167938120Y-78386755D01*
X167942013Y-78329039D01*
X167953203Y-78277803D01*
X167971233Y-78232070D01*
X168009688Y-78170194D01*
X168057408Y-78120506D01*
X168113383Y-78082429D01*
X168173606Y-78058242D01*
X168236764Y-78044876D01*
X168298201Y-78040510D01*
X168351677Y-78044586D01*
X168401988Y-78056626D01*
X168449796Y-78076646D01*
X168511785Y-78111162D01*
X168513672Y-78112654D01*
X168513672Y-78065093D01*
X168506456Y-77970914D01*
X168487182Y-77900657D01*
X168458259Y-77848883D01*
X168427888Y-77817091D01*
X168392376Y-77794575D01*
X168350705Y-77780687D01*
X168301290Y-77775806D01*
X168253309Y-77780334D01*
X168210851Y-77793452D01*
X168172800Y-77815031D01*
X168141811Y-77844606D01*
X168121732Y-77880699D01*
X168112015Y-77925050D01*
X168109519Y-77935114D01*
X168101268Y-77945133D01*
X168089037Y-77951875D01*
X168071983Y-77954335D01*
X168007369Y-77954335D01*
X167990200Y-77951563D01*
X167976606Y-77943588D01*
X167967199Y-77931740D01*
X167964248Y-77918938D01*
X167969029Y-77872011D01*
X167983431Y-77826635D01*
X168008107Y-77781985D01*
X168040416Y-77742141D01*
X168079419Y-77708118D01*
X168125851Y-77679623D01*
X168176407Y-77659145D01*
X168233947Y-77646354D01*
X168299746Y-77641875D01*
X168358617Y-77645501D01*
G37*
M02*
